<svg xmlns="http://www.w3.org/2000/svg" version="1.1" xmlns:xlink="http://www.w3.org/1999/xlink" xmlns:svgjs="http://svgjs.dev/svgjs" width="2000" height="2242" viewBox="0 0 2000 2242"><g transform="matrix(1,0,0,1,-3.115264797507507,0)"><svg viewBox="0 0 321 360" data-background-color="#ffffff" preserveAspectRatio="xMidYMid meet" height="2242" width="2000" xmlns="http://www.w3.org/2000/svg" xmlns:xlink="http://www.w3.org/1999/xlink"><g id="tight-bounds" transform="matrix(1,0,0,1,0.5,0)"><svg viewBox="0 0 320 360" height="360" width="320"><g><svg></svg></g><g><svg viewBox="0 0 320 360" height="360" width="320"><g><path d="M20.961 227.22l3.726 4.658-1.863-6.056c-0.466-2.795-3.726 0.466-1.863 1.398M25.153 224.425c1.397 2.329 2.795 4.658 2.795 6.987 0 3.261 2.795 4.658 5.123 5.589-3.261-3.726-5.124-13.974-7.918-12.576M204.017 26.929c7.918 0 15.371-0.932 23.756 0.931 20.495 5.124 37.729 15.371 49.374 29.811l32.606 52.169c1.397 13.042 4.192 27.482 3.726 43.319 3.261 0 2.795-4.658 6.521-5.59-3.726 9.316-5.59 20.961-6.521 34.469-2.329-7.453 0-18.632 0.466-24.687-3.261 5.124-5.124 1.397-5.124-0.932 0.466-3.726-1.397-3.261-2.795-4.658-5.124-4.658-8.384-9.782-12.11-17.7 2.329-6.055 2.795-14.905-4.658-19.563-2.329-1.397-5.124-3.726-6.521-7.453-1.863-5.124-5.124-11.179-4.193-19.097 0.466-2.329-6.987 5.124-11.179 1.863-18.166-12.576-36.332-27.016-58.224-39.127-11.645 0-20.029-4.192-24.221-9.316-3.726-4.658-0.932-10.713 4.658-11.179 3.261 0 6.987-0.932 9.782 0.932 0.466-1.863 2.329-4.192 4.657-4.192M157.904 16.215l0.932 0.466c4.658 0.932 6.987 7.453 12.11 5.124 0 3.261 0.466 6.521-0.466 8.85-1.397 3.726-5.59 3.726-8.85 3.726-31.208-1.863-49.374 11.179-68.471 22.358-5.124 3.261-10.713 5.59-14.906 9.782-20.029 18.632-41.921 35.866-47.045 70.335l-4.192 38.195c-0.466 4.192-5.124 8.384-4.192 13.508l3.26 22.824c-3.261-3.261-5.124 0.932-4.192 2.795 0.466 1.397 2.329 6.055 5.124 1.863 3.726 6.987 7.453 20.495 12.576 26.55 15.837 18.632 36.332 35.4 53.101 52.169 4.192-0.932 7.453-0.932 8.384-3.727 1.397 2.795-1.397 5.59-3.726 6.056 7.453 4.658 15.837 8.85 27.016 9.781 14.44 0.932 27.948 3.261 40.524 6.522 6.521-1.863 13.042-2.795 20.029-3.261 2.329 0 3.726-3.726 6.521-4.658l0.466-4.658c2.795 4.192 2.329-1.397 0.466-4.192 3.261 2.795 4.192 5.124 5.589 6.987 0-1.397 3.726-6.521 3.727-0.466l0.931-6.055c1.397-0.932 1.863 5.124 3.261 0.931 1.397-4.192 4.192-0.932 6.987-2.329-0.932 1.863-0.466 5.59 2.794 3.261l3.727-3.261c2.329 5.59 6.055 3.261 7.918 2.329 20.495-13.042 40.99-28.413 60.553-43.784l-0.466 6.055 2.329-7.453c2.329 2.329 4.192 0.466 5.124-0.931 2.795-4.658 6.521-9.316 12.577-13.508-7.453 20.029-16.303 35.866-27.482 48.908l-4.658 5.59c0 3.261-0.932 7.453-4.658 7.918-1.863 0.466-5.59-0.932-8.384 1.863-1.397 1.863 3.261 5.59-0.466 2.795-3.261-2.329-6.521 0-10.248 0.932-2.795 0.932 1.863 3.726 2.795 5.589 0.932 1.863 1.863 3.726 1.398 6.056l-5.124-5.59c-6.055 3.261-9.782 9.316-14.906 13.974-2.329 1.863-1.397 5.124-1.397 7.918-3.261 0-6.987-0.932-8.85 0.932-1.397 1.863-0.932 4.658-0.932 7.453-4.658-0.466-5.124-7.453-9.315-6.056-4.192 0.932-8.85 1.397-12.577 3.727 2.795 5.59-4.658 2.329-3.726 3.26-6.987-4.192-13.042-7.453-20.495-4.658-15.837-5.124-35.4-2.795-49.84-0.931 0-2.329 0.466-4.658-0.466-5.124-0.932 2.329-3.726 1.397-3.26 1.397-8.85-6.055-17.7-9.782-27.016-14.905-8.384 0.932-16.303-3.261-18.632-5.59-6.521-6.055-13.974-2.795-20.029-4.192-13.042-3.261-17.7-16.769-19.098-26.084-0.932-4.658-4.658-6.521-6.055-6.056-6.055-19.563-15.371-37.263-22.824-55.429-1.863-4.658-1.397-9.316-1.397-14.44 2.329 0.932 4.658 0.466 4.192-2.794-2.329-15.371-7.918-27.016-13.974-38.195 3.261-15.837 3.726-34.469 11.179-48.443 6.521-12.576 18.632-19.098 27.016-29.811 2.795-3.726 2.795-8.85 5.59-12.11 9.316-9.316 18.632-19.098 28.879-27.482 4.658-3.726 10.247 0 17.234-1.397 2.329-8.384 11.645-15.837 20.495-13.508 3.726 0.932 11.179-8.85 13.508-9.782 3.726-1.397 1.863 3.726 1.863 6.987 8.85-6.987 20.961-10.713 32.14-14.906" fill="#1f2d99" fill-rule="nonzero" stroke="none" stroke-width="1" stroke-linecap="butt" stroke-linejoin="miter" stroke-miterlimit="10" stroke-dasharray="" stroke-dashoffset="0" font-family="none" font-weight="none" font-size="none" text-anchor="none" style="mix-blend-mode: normal" data-fill-palette-color="tertiary"></path></g><g transform="matrix(1,0,0,1,85.50293297587132,90)"><svg viewBox="0 0 148.99413404825737 180" height="180" width="148.99413404825737"><g><svg viewBox="0 0 148.99413404825737 180" height="180" width="148.99413404825737"><g><svg viewBox="0 0 148.99413404825737 180" height="180" width="148.99413404825737"><g id="textblocktransform"><svg viewBox="0 0 148.99413404825737 180" height="180" width="148.99413404825737" id="textblock"><g><svg viewBox="0 0 148.99413404825737 180" height="180" width="148.99413404825737"><path d="M148.645 38.607C147.945 19.923 145.949 14.728 145.949 14.728 139.82-4.516 132.171-0.368 125.299 2.397 113.167 2.509 101.085 6.62 88.981 8.824 63.575 9.161 37.953 3.63 12.673 17.27 10.299 21.455-2.463 18.092 0.422 40.998 1.179 50.527 3.939 61.102 3.855 69.846 4.233 71.378 4.758 67.866 4.982 70.07 5.767 76.012 7.049 73.209 8.099 76.722 6.635 86.101 7.686 93.911 8.688 102.095 6.923 104.225 4.66 103.216 3.644 110.278 3.539 115.398 2.972 114.426 2.349 114.202 1.893 114.052 0.976 114.613 1.13 116.22 1.655 121.713-0.6 124.889 0.815 130.27-0.159 136.099 1.487 141.144 1.263 147.459 1.235 148.73 1.389 149.813 1.634 150.112 2.72 151.719 1.137 154.858 1.305 158.258 12.442 181.501 24.525 165.433 35.935 176.12 38.898 168.647 36.671 178.773 37.855 177.204 38.779 175.373 39.452 182.959 40.495 178.661 40.656 177.428 40.411 174.514 40.986 175.074 41.287 175.373 41.553 175.298 41.595 173.579 41.658 171.001 41.105 172.608 40.958 171.263 42.548 164.462 42.155 180.642 43.647 179.969 43.577 177.989 43.143 175.149 44.033 175.522 44.915 172.682 44.943 170.328 45.728 176.718 45.756 178.101 45.896 179.072 46.12 179.745 48.572 172.795 51.009 182.211 53.58 179.072 55.156 175.635 56.669 180.941 58.266 179.633 58.826 178.587 59.394 176.718 59.933 179.857 66.538 180.53 73.578 177.727 79.84 179.969 96.574 175.784 114.456 181.688 132.101 176.158 136.261 174.028 140.583 171.001 144.639 168.572 144.639 168.572 147.924 161.921 147.924 132.026S148.624 105.869 148.729 82.065C148.834 58.262 149.325 57.29 148.624 38.607Z" opacity="1" fill="#1f2d99" data-fill-palette-color="tertiary"></path><g transform="matrix(1,0,0,1,27.071999999999996,19.1)"><svg width="94.85013404825737" viewBox="2.65 -37.5 24.950000000000003 37.3" height="141.8" data-palette-color="#ffffff"><path d="M25.6-34.5Q27.6-34.1 27.6-32.3L27.6-32.3Q27.6-31.25 27.05-30.63 26.5-30 25.5-30.1L25.5-30.1Q20.3-30.7 16.1-30.7L16.1-30.7Q14.5-30.7 11-30.6L11-30.6Q11.4-26.3 11.45-19.95L11.45-19.95Q13.65-20.05 15.05-20.05L15.05-20.05Q20.3-20.05 22.95-19.65L22.95-19.65Q24.9-19.3 24.9-17.4L24.9-17.4Q24.9-16.45 24.38-15.83 23.85-15.2 22.7-15.3L22.7-15.3Q19.3-15.6 15.05-15.6L15.05-15.6Q13.65-15.6 11.45-15.5L11.45-15.5Q11.4-7.25 10.95-2.25L10.95-2.25Q10.85-1.35 10.2-0.78 9.55-0.2 8.45-0.2L8.45-0.2Q7.25-0.2 6.55-0.78 5.85-1.35 5.95-2.3L5.95-2.3Q6.45-8.25 6.5-15.1L6.5-15.1 4.65-14.85Q3.85-14.75 3.3-15.38 2.75-16 2.75-17.05L2.75-17.05Q2.75-19 4.9-19.3L4.9-19.3Q5.5-19.4 6.5-19.5L6.5-19.5Q6.45-25.2 6-30.4L6-30.4 4.75-30.35Q3.65-30.35 3.15-30.88 2.65-31.4 2.65-32.55L2.65-32.55Q2.65-33.6 3.1-34.13 3.55-34.65 4.6-34.75L4.6-34.75 5.55-34.8 5.5-35.35Q5.45-36.3 6.15-36.9 6.85-37.5 8.05-37.5L8.05-37.5Q10.3-37.5 10.55-35.35L10.55-35.35Q10.55-35.15 10.6-35.05L10.6-35.05Q14.1-35.15 16-35.15L16-35.15Q19.05-35.15 21.73-34.95 24.4-34.75 25.6-34.5L25.6-34.5Z" opacity="1" transform="matrix(1,0,0,1,0,0)" fill="#ffffff" class="wordmark-text-0" data-fill-palette-color="quaternary" id="text-0"></path></svg></g></svg></g></svg></g></svg></g><g></g></svg></g></svg></g></svg></g><defs></defs></svg><rect width="320" height="360" fill="none" stroke="none" visibility="hidden"></rect></g></svg></g></svg>